<svg xmlns="http://www.w3.org/2000/svg" width="80" height="26.286"><path d="M9.956 4.628h5.9v-3.8H0v3.8h5.9v15.184h4.058V4.628zm6.143 2.248v8.119a5.9 5.9 0 00.306 1.917 5.121 5.121 0 00.9 1.616 4.032 4.032 0 001.545 1.13 5.418 5.418 0 002.17.414 4.315 4.315 0 003.74-1.87h.037v1.609h3.862V6.876h-3.911v7.208a2.614 2.614 0 01-.613 1.781 2.244 2.244 0 01-1.79.7 2.18 2.18 0 01-1.753-.674 2.7 2.7 0 01-.576-1.811V6.872zm23.405-.142a4.258 4.258 0 00-2.029.485 3.4 3.4 0 00-1.441 1.539h-.037V6.876h-3.715v12.936h3.838v-5.669a3.885 3.885 0 01.87-2.716 2.989 2.989 0 012.317-.953 7.038 7.038 0 011.25.095v-3.7a4.29 4.29 0 00-1.054-.13zm5.333-2.036a2.434 2.434 0 001.747-.686 2.286 2.286 0 000-3.326A2.434 2.434 0 0044.837 0a2.342 2.342 0 00-1.692.692 2.293 2.293 0 000 3.32 2.353 2.353 0 001.692.686zm2 2.178v12.936h-3.923V6.876zm16.184 12.936v-8.048a6.347 6.347 0 00-.288-1.935 5.17 5.17 0 00-.858-1.633 3.931 3.931 0 00-1.521-1.154 5.294 5.294 0 00-2.188-.426 4.34 4.34 0 00-.68.065 8.554 8.554 0 00-1 .243 3.792 3.792 0 00-1.177.6 3.447 3.447 0 00-.932 1.03h-.037V6.873h-3.874v12.936h3.9v-7.184a2.649 2.649 0 01.619-1.787 2.238 2.238 0 011.8-.722 2.163 2.163 0 011.747.686 2.722 2.722 0 01.582 1.823v7.184zM76.14 6.876v1.562h-.049a4.844 4.844 0 00-1.073-.935 4.515 4.515 0 00-1.171-.545 7.536 7.536 0 00-.993-.225 5.789 5.789 0 00-.809-.059 6.072 6.072 0 00-2.618.568 5.943 5.943 0 00-2.011 1.5 7.17 7.17 0 00-1.257 2.113 6.676 6.676 0 00-.453 2.42 6.85 6.85 0 00.8 3.3 6.01 6.01 0 002.293 2.367 6.534 6.534 0 003.378.876 4.652 4.652 0 003.862-1.728h.049v1.479a3.8 3.8 0 01-.294 1.544 2.742 2.742 0 01-.8 1.071 3.564 3.564 0 01-1.147.6 4.519 4.519 0 01-1.361.2 3.107 3.107 0 01-2.1-.692 2.926 2.926 0 01-1-1.686l-3.617 1.006a4.631 4.631 0 00.724 1.734 6.4 6.4 0 001.4 1.485 6.62 6.62 0 002.084 1.053 8.787 8.787 0 002.667.391 9.07 9.07 0 002.943-.456 6.77 6.77 0 002.323-1.326 5.826 5.826 0 001.539-2.243 8.294 8.294 0 00.552-3.113V6.876zm-.883 8.735a3.226 3.226 0 01-2.33.911 3.193 3.193 0 01-2.317-.905 3.367 3.367 0 01.012-4.663 3.4 3.4 0 014.641-.006 3.359 3.359 0 01-.006 4.663z" fill="#151515" fill-rule="evenodd"/></svg>